<svg xmlns="http://www.w3.org/2000/svg" width="10.97" height="20.531" viewBox="0 0 10.97 20.531">
  <metadata><?xpacket begin="﻿" id="W5M0MpCehiHzreSzNTczkc9d"?>
<x:xmpmeta xmlns:x="adobe:ns:meta/" x:xmptk="Adobe XMP Core 5.6-c138 79.159824, 2016/09/14-01:09:01        ">
   <rdf:RDF xmlns:rdf="http://www.w3.org/1999/02/22-rdf-syntax-ns#">
      <rdf:Description rdf:about=""/>
   </rdf:RDF>
</x:xmpmeta>
                                                                                                    
                                                                                                    
                                                                                                    
                                                                                                    
                                                                                                    
                                                                                                    
                                                                                                    
                                                                                                    
                                                                                                    
                                                                                                    
                                                                                                    
                                                                                                    
                                                                                                    
                                                                                                    
                                                                                                    
                                                                                                    
                                                                                                    
                                                                                                    
                                                                                                    
                                                                                                    
                           
<?xpacket end="w"?></metadata>
<defs>
    <style>
      .cls-1 {
        fill: #c7c7c7;
        fill-rule: evenodd;
      }
    </style>
  </defs>
  <path id="Goto_icon" class="cls-1" d="M2621.1,244.1l-0.38-.391a0.51,0.51,0,0,1-.02-0.722l8.48-8.852a0.5,0.5,0,0,1,.71.011l0.39,0.392a0.508,0.508,0,0,1,.01.721l-8.47,8.852A0.509,0.509,0,0,1,2621.1,244.1Zm-0.44-19.8,0.4-.405a0.505,0.505,0,0,1,.72-0.012l9.56,9.775a0.517,0.517,0,0,1-.01.728l-0.4.405a0.517,0.517,0,0,1-.73.012l-9.55-9.774A0.518,0.518,0,0,1,2620.66,224.3Z" transform="translate(-2620.53 -223.75)"/>
</svg>
